<svg xmlns="http://www.w3.org/2000/svg" viewBox="-12365.999 -1021 39.999 39.999">
  <defs>
    <style>
      .cls-1 {
        fill: #da1b38;
      }
    </style>
  </defs>
  <path id="Union_1" data-name="Union 1" class="cls-1" d="M13412,1126a20,20,0,1,1,30.748,16.87.82.82,0,0,1-.773.055,3.024,3.024,0,0,1-3.7-2.949,2.965,2.965,0,0,1,.419-1.526h-6.739a2.954,2.954,0,0,1,.416,1.526,3.023,3.023,0,1,1-6.047,0,3,3,0,0,1,.433-1.553,3.069,3.069,0,0,1-2.671-3.038v-16.414l-3.629-1.529a.75.75,0,1,1,.584-1.381l4.088,1.718.074.034c0,.007.011.007.018.01l.044.027a.256.256,0,0,0,.033.03s.017.01.021.017a.475.475,0,0,1,.04.03.046.046,0,0,0,.018.017.221.221,0,0,0,.03.034.115.115,0,0,0,.02.017.208.208,0,0,0,.021.034c.007.01.011.017.017.027a.192.192,0,0,0,.018.027.156.156,0,0,1,.021.034c.006.007.006.017.013.024a.111.111,0,0,1,.021.044c0,.007.007.017.007.024s.01.03.017.047.007.017.007.03a.243.243,0,0,0,.011.044c0,.017.006.034.006.051a.044.044,0,0,1,0,.02.285.285,0,0,1,.007.078v2.63l18.854,2.6c.011,0,.018.007.024.007a.213.213,0,0,1,.044,0,.086.086,0,0,0,.026.007.227.227,0,0,1,.041.01c.01.007.02.007.03.014a.1.1,0,0,1,.033.017.143.143,0,0,1,.034.017l.033.014a.113.113,0,0,0,.034.024l.027.017a.244.244,0,0,0,.033.024c.011,0,.018.014.027.02l.027.027a.153.153,0,0,1,.023.024c.007.01.017.017.021.027s.017.017.023.027.017.017.02.03.018.02.024.03.01.017.017.03.01.02.017.03a.123.123,0,0,1,.018.03.151.151,0,0,0,.017.037.111.111,0,0,0,.01.034.151.151,0,0,1,.011.034.164.164,0,0,0,.013.037c0,.013,0,.024,0,.034s.007.03.007.041a.055.055,0,0,1,.007.034v6.323a3.072,3.072,0,0,1-3.065,3.065h-14.875a3.1,3.1,0,0,1-1.566-.422v2.029a1.568,1.568,0,0,0,1.566,1.567h14.148a3.034,3.034,0,0,1,3.007,2.693,18.376,18.376,0,1,0-12.308,4.727.814.814,0,0,1,0,1.627A20.02,20.02,0,0,1,13412,1126Zm27.777,13.97a1.528,1.528,0,1,0,1.529-1.526A1.534,1.534,0,0,0,13439.778,1139.97Zm-11.951,0a1.526,1.526,0,1,0,1.526-1.526A1.534,1.534,0,0,0,13427.827,1139.97Zm-2.241-17.072v7.815a1.568,1.568,0,0,0,1.566,1.566h14.875a1.569,1.569,0,0,0,1.566-1.57V1125.1l-18.008-2.481Z" transform="translate(-25778 -2127)"/>
</svg>
