<svg xmlns="http://www.w3.org/2000/svg" viewBox="-13446 -922 22.143 18.005">
  <defs>
    <style>
      .cls-1 {
        fill: #fff;
      }
    </style>
  </defs>
  <path id="menu_button" data-name="menu button" class="cls-1" d="M2.143,18C.964,18,0,17.489,0,16.86s.964-1.146,2.143-1.146H20c1.179,0,2.143.516,2.143,1.146S21.179,18,20,18Zm0-7.857C.964,10.148,0,9.632,0,9S.964,7.857,2.143,7.857H20c1.179,0,2.143.516,2.143,1.145S21.179,10.148,20,10.148Zm0-7.858C.964,2.29,0,1.775,0,1.145S.964,0,2.143,0H20c1.179,0,2.143.515,2.143,1.145S21.179,2.29,20,2.29Z" transform="translate(-13446 -922)"/>
</svg>
