<svg xmlns="http://www.w3.org/2000/svg" viewBox="-8706 -1080 10.007 10">
  <defs>
    <style>
      .cls-1 {
        fill: #da1b38;
      }
    </style>
  </defs>
  <path id="Path_10" data-name="Path 10" class="cls-1" d="M10,8.08a.484.484,0,0,1-.148.424L8.445,9.9a.793.793,0,0,1-.249.18,1.029,1.029,0,0,1-.3.1l-.064.005q-.053.005-.138.005a4.884,4.884,0,0,1-.652-.069,4.948,4.948,0,0,1-1.1-.339,9.247,9.247,0,0,1-1.478-.81A11.018,11.018,0,0,1,2.7,7.487a11.608,11.608,0,0,1-1.229-1.4A9.963,9.963,0,0,1,.69,4.854,6.647,6.647,0,0,1,.245,3.827a5.452,5.452,0,0,1-.2-.794A2.624,2.624,0,0,1,0,2.508Q.012,2.317.012,2.3a1.03,1.03,0,0,1,.1-.3.794.794,0,0,1,.18-.249L1.7.336A.467.467,0,0,1,2.036.188a.4.4,0,0,1,.244.079.736.736,0,0,1,.18.2l1.133,2.15a.516.516,0,0,1,.053.371.66.66,0,0,1-.18.339l-.519.519a.177.177,0,0,0-.037.069.261.261,0,0,0-.016.079,1.913,1.913,0,0,0,.191.508,4.668,4.668,0,0,0,.392.62,6.881,6.881,0,0,0,.752.842,7.017,7.017,0,0,0,.847.757,4.894,4.894,0,0,0,.62.4,1.647,1.647,0,0,0,.381.154l.132.027a.253.253,0,0,0,.069-.016.177.177,0,0,0,.069-.037l.6-.614A.649.649,0,0,1,7.4,6.459a.554.554,0,0,1,.286.064h.011L9.737,7.73A.533.533,0,0,1,10,8.08Z" transform="translate(-8706 -1080.188)"/>
</svg>
