<svg xmlns="http://www.w3.org/2000/svg" viewBox="-13433 1286 78 65">
  <defs>
    <style>
      .cls-1 {
        fill: #fff;
      }
    </style>
  </defs>
  <g id="Group_2" data-name="Group 2" transform="translate(-13433 1286)">
    <g id="Group_1" data-name="Group 1" transform="translate(0 0)">
      <path id="Path_4" data-name="Path 4" class="cls-1" d="M69.875,68.8V67.042A4.88,4.88,0,0,0,65,62.167H48.75V54.041a1.625,1.625,0,0,0-1.625-1.625H42.25V47.542a1.625,1.625,0,0,0-1.625-1.625H18.549l-2.775-2.775a1.625,1.625,0,0,0-2.3,0L4.2,52.416H1.625A1.625,1.625,0,0,0,0,54.041v45.5a1.625,1.625,0,0,0,1.625,1.625H8.288a8.09,8.09,0,0,0,1.466,3.25H6.5a1.625,1.625,0,0,0,0,3.25h9.762a8.138,8.138,0,0,0,7.949-6.5H53.789a8.09,8.09,0,0,0,1.466,3.25H52a1.625,1.625,0,0,0,0,3.25h9.762a8.138,8.138,0,0,0,7.949-6.5h6.663A1.625,1.625,0,0,0,78,99.541V78.416A9.764,9.764,0,0,0,69.875,68.8ZM39,49.167v3.249H25.049L21.8,49.167ZM14.625,46.589l2.1,2.1,0,0,3.724,3.724H8.8Zm1.624,57.827a4.875,4.875,0,1,1,4.875-4.875A4.88,4.88,0,0,1,16.25,104.416ZM45.5,63.792V91.416H34.448a1.625,1.625,0,1,0,0,3.25H45.5v3.25H24.211a8.126,8.126,0,0,0-15.923,0H3.25v-26h6.5a1.625,1.625,0,0,0,0-3.25H3.25v-3.25h19.5a1.625,1.625,0,0,0,0-3.25H3.25v-6.5H45.5v8.126Zm8.29,34.125H48.75v-3.25h6.505A8.086,8.086,0,0,0,53.789,97.916Zm12.836,1.63a4.875,4.875,0,1,1-4.887-4.88h.016a4.88,4.88,0,0,1,4.871,4.87s0,0,0,.005S66.625,99.545,66.625,99.546Zm8.124-1.63H69.712a8.139,8.139,0,0,0-7.961-6.5h-13v-26H65a1.627,1.627,0,0,1,1.625,1.625v1.625H55.251a1.625,1.625,0,0,0-1.625,1.625V84.916a1.625,1.625,0,0,0,1.625,1.625h19.5Zm-14.624-26V83.291h-3.25V71.916ZM74.75,83.291H63.376V71.916H68.25a6.507,6.507,0,0,1,6.5,6.5v4.875Z" transform="translate(0 -42.666)"/>
      <path id="Path_5" data-name="Path 5" class="cls-1" d="M175.355,365.917h1.014a1.625,1.625,0,1,0,0-3.25h-1.014a1.625,1.625,0,1,0,0,3.25Z" transform="translate(-147.264 -313.917)"/>
      <path id="Path_6" data-name="Path 6" class="cls-1" d="M175.355,173.919h1.014a1.625,1.625,0,0,0,0-3.25h-1.014a1.625,1.625,0,0,0,0,3.25Z" transform="translate(-147.264 -151.169)"/>
    </g>
  </g>
</svg>
